<?xml version="1.0" encoding="utf-8"?>

<!DOCTYPE svg PUBLIC "-//W3C//DTD SVG 1.1//EN" "http://www.w3.org/Graphics/SVG/1.1/DTD/svg11.dtd">
<svg version="1.1" id="Layer_1" xmlns="http://www.w3.org/2000/svg" xmlns:xlink="http://www.w3.org/1999/xlink" x="0px" y="0px"
	 viewBox="0 0 1564.238 1992.047" enable-background="new 0 0 1564.238 1992.047" xml:space="preserve">
<g>
	<path fill="#F5EE30" stroke="#F5EE30" stroke-miterlimit="10.43" d="M730.288,103.41c11.97-7.12,25.45-11.76,39.34-13.09
		c16.04-1.85,31.96,1.78,47.74,4.13c6.95,1.42,14.09,1.6,21.04,3.03c4.14,0.81,7.94,3.02,12.22,3.14c7.25,0.42,14.39,2.3,20.94,5.44
		c4.84,2.25,8.81,5.89,13.04,9.07c2.55,1.89,4.66,4.73,8.04,5.15c27.76,6.21,56.37,9.91,82.77,21.06
		c18.9,7.66,35.98,19.27,51.23,32.72c12.82,11.23,23.93,24.22,34.84,37.26c1.95,2.37,3.9,4.97,6.93,6.01
		c5.2,2.1,9.3,6.01,13.76,9.29c4.24,3.09,6.99,7.66,10.25,11.67c7.46,9.72,14.51,19.75,20.85,30.23
		c9.58,15.76,17.09,32.64,24.52,49.48c6.88,15.94,14.05,31.76,21.83,47.28c15.18,31.18,34.26,60.67,44.93,93.88
		c6.1,19.02,8.81,38.94,10.15,58.8c0.86,11.38-0.38,22.77-1.97,34.03c-0.48,2.03,0.3,4.01,1.15,5.84
		c4.62,10.08,9.1,20.32,11.7,31.15c3.27,13.38,4.85,27.1,7.75,40.57c1.34,5.26,1.72,11.11,5.35,15.44
		c7.81,10.54,11.8,23.81,11.14,36.91c-0.65,34.48,8.41,68.08,11.27,102.27c-0.18,3.38,2.69,5.51,4.55,7.94
		c5.47,6.61,8.99,14.64,10.69,23.02c5.69,24.14,10.16,48.62,12.01,73.37c1.68,23.2-0.66,46.49-4.42,69.38
		c-3.39,20.47-10.12,40.23-17.87,59.42c-5.35,13.48-11.58,26.6-16.92,40.08c-8.65,23.61-12.88,48.47-19.37,72.69
		c-4.24,16.32-10.4,32.08-17.59,47.31c-5.67,12.23-13.99,23.03-22.83,33.13c-11.66,13.19-26.07,23.99-42.31,30.87
		c-21.06-3.52-42.11-7-63.21-10.24c-24.14-28.76-49.86-56.29-77.87-81.34c-15.24-13.43-31.14-26.29-48.72-36.56
		c0.07-13.38-0.13-26.75,0.09-40.12c47.21-42.35,81.8-97.53,103.66-156.8c21.6-58.55,32.34-120.97,32.68-183.33
		c-1.89-55.32-10.69-110.78-30.15-162.77c-15.92,11.17-38.21,14.51-55.55,4.65c-8.48-3.22-14.67-9.97-21.56-15.55
		c-8.19-6.88-16.55-13.58-25.42-19.55c-6.13-4.02-12.62-8.71-20.29-8.53c-19.04,0.29-38.56-2.07-55.97-10.17
		c-14.26-6.67-28.69-13.25-41.57-22.42c-12.23-8.6-23.22-18.81-34.23-28.89c-18.01-16.77-31.86-37.32-44.69-58.16
		c-6.06-9.99-10.98-20.86-12.51-32.53c-1.46-8.72-0.89-17.58,0.07-26.31c-30.87,9.47-60.36,23.39-87.49,40.88
		c-39.73,25.55-74.01,59.51-99.81,99.08c-18.79,28.55-33.23,59.86-43.66,92.37c-12.79,39.66-19.72,81.05-22.47,122.58
		c-0.51,10.78-1.79,21.62-0.46,32.4c0.08,41.44,5.74,82.8,15.66,123.01c15.96,64.42,44.54,126.51,88.04,177.04
		c9.17,10.91,19.42,20.84,29.6,30.79c0.07,12.16,0,24.32,0.03,36.48c-16.33,7.88-31.01,18.71-45.03,30.1
		c-33.57,27.92-63.63,59.83-91.74,93.17c-18.37,2.82-36.72,5.81-55.06,8.89c-9.94-15.78-12.2-36.81-3.75-53.72
		c2.32-7,7.22-12.59,11.31-18.58c10.21-14.38,20.45-28.84,28.47-44.59c5.96-12.19,7.98-26.29,5.19-39.6
		c-1.91-8.66-4.38-17.19-7.26-25.56c-7.28-19.43-11.14-39.88-17.19-59.68c-2.86-9.02-5.18-18.35-9.51-26.79
		c-5.96-5.56-12.02-11.34-15.56-18.84c-9.24-1.27-18.71-3.53-26.36-9.12c-5.39-4.23-11.33-8.02-15.26-13.78
		c-6.14-7.79-9.3-17.33-11.39-26.88c-4.23-7.84-7.56-16.35-8.02-25.35c-0.9-11.07,1.77-22.16,6.71-32.04
		c-10.34-13.82-14.57-32.31-10.08-49.1c2.96-10.58,5.77-21.31,6.48-32.32c2.43-30.16,1-60.45,2.83-90.63
		c1.52-21.05,3.64-42.2,8.91-62.68c4.95-17.18,11.59-33.96,20.76-49.34c4.44-7.96,9.57-15.59,13.2-23.96
		c6.53-19.47,8.18-40.1,13.27-59.91c3.72-12.95,8.52-25.82,16.06-37.06c-4.66-8.33-7.91-17.47-9.2-26.93
		c-2.23-15.93,0.33-32.21,5.41-47.36c5.87-17.76,14.97-34.25,25.32-49.76c10.73-16.06,22.62-31.34,35.38-45.84
		c5.24-6.12,11.64-11.04,18.07-15.83c5.41-4.35,11.57-7.66,18.08-10.04c2.35-11.42,8.09-22.12,16.64-30.09
		c4.27-4.47,9.93-7.33,13.98-12.03c9.71-10.65,17.12-23.39,28.23-32.76c5.28-4.41,10.6-8.78,16.2-12.78
		c7.92-5.4,17.06-8.55,25.83-12.23c3.29-2.29,5.4-5.88,8.36-8.55c10-10.53,22.03-19.18,35.6-24.48
		C700.018,105.35,715.318,103.56,730.288,103.41z"/>
	<g>
		<path fill="#FCB040" stroke="#FCB040" stroke-miterlimit="10.43" d="M664.308,393.64c27.13-17.49,56.62-31.41,87.49-40.88
			c-0.96,8.73-1.53,17.59-0.07,26.31c1.53,11.67,6.45,22.54,12.51,32.53c12.83,20.84,26.68,41.39,44.69,58.16
			c11.01,10.08,22,20.29,34.23,28.89c12.88,9.17,27.31,15.75,41.57,22.42c17.41,8.1,36.93,10.46,55.97,10.17
			c7.67-0.18,14.16,4.51,20.29,8.53c8.87,5.97,17.23,12.67,25.42,19.55c6.89,5.58,13.08,12.33,21.56,15.55
			c17.34,9.86,39.63,6.52,55.55-4.65c19.46,51.99,28.26,107.45,30.15,162.77c-0.34,62.36-11.08,124.78-32.68,183.33
			c-21.86,59.27-56.45,114.45-103.66,156.8c-0.22,13.37-0.02,26.74-0.09,40.12c0.03,7.95-0.08,15.91,0.06,23.87
			c-0.14,97.32-0.02,194.65-0.06,291.97c-0.1,8.95,0.41,17.93-0.71,26.84c3.53,35.2-4.49,71.53-23.15,101.65
			c-17.41,28.51-43.81,51.41-74.5,64.62c-30.96,13.43-66.13,16.75-99.09,9.65c-34.4-7.29-66.16-26.22-89.07-52.87
			c-19.32-22.3-32.42-49.94-37.3-79.04c-2.54-14.51-2.73-29.34-1.53-43.98c0.05-2.67-0.56-5.29-0.64-7.92
			c-0.05-109.97,0.06-219.95-0.06-329.92c0.08-3.58,0.04-7.16,0.05-10.72c-0.03-12.16,0.04-24.32-0.03-36.48
			c-10.18-9.95-20.43-19.88-29.6-30.79c-43.5-50.53-72.08-112.62-88.04-177.04c-9.92-40.21-15.58-81.57-15.66-123.01
			c-1.33-10.78-0.05-21.62,0.46-32.4c2.75-41.53,9.68-82.92,22.47-122.58c10.43-32.51,24.87-63.82,43.66-92.37
			C590.298,453.15,624.578,419.19,664.308,393.64z M934.268,652.76c-39.11,3.76-76.11,21.53-105.75,46.95
			c-3.35,2.35-1.46,7.65,2.2,8.48c2.87,1.25,5.35-1.13,7.38-2.83c19.35-15.91,41.69-28.23,65.58-35.79
			c19.91-6.23,41.16-9.07,61.91-6.04c22.74,3.33,44.97,13.9,60.01,31.57c1.25,1.42,3.08,2.99,5.14,2.26
			c3.84-0.88,5.71-6.23,2.81-9.1c-10.58-12.33-24.42-21.69-39.51-27.59C975.138,653.19,954.428,650.99,934.268,652.76z
			 M621.218,656.58c-27.52,2.55-54.85,14.61-72.84,36.01c-3.7,3.86,1.61,11.18,6.34,8.28c3.44-3.22,6.34-7.01,10.05-9.96
			c20.59-18.11,48.87-25.49,75.88-24.12c39.06,1.92,76.13,19.51,105.75,44.46c2.95,2.82,8.39,0.61,8.94-3.31
			c0.24-1.81-0.68-3.46-2.06-4.5c-8.93-7.57-18.52-14.36-28.58-20.34C693.738,664.73,657.488,653.25,621.218,656.58z
			 M873.998,704.05c-0.71,0.41-1.39,0.87-2.02,1.37c-1.57-1.32-5.08,0.56-4.11,2.6c-7.73,4.79-14.7,11.05-20.43,18.07l0.16,0.69
			l-0.69-0.06c-2.31,1.91-3.86,4.7-5.64,7.13c3.09,0.86,6.26,1.33,9.47,1.6c25.6,0.71,51.1-2.22,76.49-5.16
			c26.84-3.23,53.58-7.24,80.29-11.42c3.79,0.4,7.53-0.53,11.27-1.09c5.9-0.99,11.82-1.86,17.71-2.94
			c-13.38-6.89-27.5-12.26-41.88-16.66c-22.98-6.91-47.11-10.71-71.13-9.08C906.258,690.49,888.688,694.69,873.998,704.05z
			 M614.808,694.85c-20.51,4.67-40.53,11.69-59.3,21.22c6.43,1.14,12.89,2.11,19.33,3.17c3.09,0.47,6.22,1.33,9.37,0.81
			c31.45,4.88,62.94,9.6,94.58,13.05c20.74,2.24,41.57,4.16,62.45,3.61l0.03-0.32c3.25,0.19,6.45-0.49,9.57-1.37
			c-1.87-2.67-3.87-5.25-6.04-7.67c-6.12-7.01-12.97-13.61-21.01-18.35c0.02-1.83-0.82-2.37-2.52-1.63
			c-0.55-0.5-1.12-0.93-1.71-1.29c-3.39-2.74-7.54-4.26-11.4-6.17c-10-4.32-20.64-7.55-31.48-8.6
			C656.078,688.4,635.048,690.39,614.808,694.85z M732.128,943.64c-21.32,1.62-42.46,5.35-63.15,10.73
			c13.13,10.93,24.84,23.4,36.17,36.15c12.38,13.87,25.87,27.8,43.5,34.76c16.76,7.01,35.25,6.56,53.06,6.05
			c11.66-0.73,23.32-3.39,33.79-8.69c15.01-7.45,26.59-19.91,37.7-32.13c11.27-12.78,23.07-25.1,36.07-36.14
			c-15.3-4.06-30.88-7.03-46.56-9.07c-21.81-2.65-44.14-3.78-65.83,0.45c-3.37,0.41-6.73,2.38-10.13,1.2
			C768.928,942.49,750.348,942.41,732.128,943.64z M634.528,1073.96c5.36,11.51,12.76,21.94,19.75,32.5
			c17.94,25.79,38.96,49.91,64.61,68.3c15.56,11.07,33.05,19.84,51.87,23.65c18.93,3.88,38.9,2.34,57.08-4.18
			c19.19-6.73,36.29-18.35,51.52-31.65c24.11-21.59,44.12-47.45,61.25-74.81c-4.78,2.32-7.87,6.84-11.93,10.12
			c-7.2,6.97-15.94,11.99-23.41,18.64c-15.73,12.42-32.44,23.79-50.61,32.35c-15.28,7.01-32.15,12.92-49.2,10.51
			c-3.98-0.28-7.84-3.07-11.82-1.65c-15.35,5.1-31.83,0.58-46.24-5.37c-19.01-8.15-36.31-19.82-52.49-32.61
			c-5.68-4.29-10.72-9.42-16.87-13.06C662.588,1097.1,648.468,1085.58,634.528,1073.96z"/>
	</g>
	<path fill="#764C28" stroke="#764C28" stroke-miterlimit="10.43" d="M934.268,652.76c20.16-1.77,40.87,0.43,59.77,7.91
		c15.09,5.9,28.93,15.26,39.51,27.59c2.9,2.87,1.03,8.22-2.81,9.1c-2.06,0.73-3.89-0.84-5.14-2.26
		c-15.04-17.67-37.27-28.24-60.01-31.57c-20.75-3.03-42-0.19-61.91,6.04c-23.89,7.56-46.23,19.88-65.58,35.79
		c-2.03,1.7-4.51,4.08-7.38,2.83c-3.66-0.83-5.55-6.13-2.2-8.48C858.158,674.29,895.158,656.52,934.268,652.76z"/>
	<path fill="#764C28" stroke="#764C28" stroke-miterlimit="10.43" d="M621.218,656.58c36.27-3.33,72.52,8.15,103.48,26.52
		c10.06,5.98,19.65,12.77,28.58,20.34c1.38,1.04,2.3,2.69,2.06,4.5c-0.55,3.92-5.99,6.13-8.94,3.31
		c-29.62-24.95-66.69-42.54-105.75-44.46c-27.01-1.37-55.29,6.01-75.88,24.12c-3.71,2.95-6.61,6.74-10.05,9.96
		c-4.73,2.9-10.04-4.42-6.34-8.28C566.368,671.19,593.698,659.13,621.218,656.58z"/>
	<path fill="#3B2313" stroke="#3B2313" stroke-miterlimit="10.43" d="M873.998,704.05c14.69-9.36,32.26-13.56,49.49-14.95l1.4,1.43
		c2.78,1.32,5.91,1.96,8.38,3.9c6.59,4.75,9.75,13.68,7.42,21.5c-2.38,9.04-11.79,15.48-21.09,14.29
		c-10.82-0.7-19.45-11.67-17.65-22.36c0.87-7.9,7.04-14.45,14.55-16.67C901.698,692.8,887.028,696.71,873.998,704.05z"/>
	<path stroke="#000000" stroke-miterlimit="10.43" d="M923.488,689.1c24.02-1.63,48.15,2.17,71.13,9.08
		c14.38,4.4,28.5,9.77,41.88,16.66c-5.89,1.08-11.81,1.95-17.71,2.94c-3.74,0.56-7.48,1.49-11.27,1.09
		c5.79-1.01,11.61-1.85,17.41-2.88c-30.81-15.84-65.2-25.9-100.04-25.46L923.488,689.1z"/>
	<path stroke="#000000" stroke-miterlimit="10.43" d="M614.808,694.85c20.24-4.46,41.27-6.45,61.87-3.54
		c-2.89,0.66-5.84,0.89-8.77,0.67c-22.28-1-44.49,3.55-65.6,10.38c-12.03,4.08-23.9,8.77-35.08,14.84
		c5.65,1.02,11.33,1.86,16.98,2.85c-3.15,0.52-6.28-0.34-9.37-0.81c-6.44-1.06-12.9-2.03-19.33-3.17
		C574.278,706.54,594.298,699.52,614.808,694.85z"/>
	<path fill="#F3F3F4" stroke="#F3F3F4" stroke-miterlimit="10.43" d="M924.888,690.53c34.84-0.44,69.23,9.62,100.04,25.46
		c-5.8,1.03-11.62,1.87-17.41,2.88c-26.71,4.18-53.45,8.19-80.29,11.42c-25.39,2.94-50.89,5.87-76.49,5.16
		c0.29-3.27-0.8-6.39-3.14-8.67l-0.16-0.69c5.73-7.02,12.7-13.28,20.43-18.07c1.43-0.75,2.81-1.62,4.11-2.6
		c0.63-0.5,1.31-0.96,2.02-1.37c13.03-7.34,27.7-11.25,42.5-12.86c-7.51,2.22-13.68,8.77-14.55,16.67
		c-1.8,10.69,6.83,21.66,17.65,22.36c9.3,1.19,18.71-5.25,21.09-14.29c2.33-7.82-0.83-16.75-7.42-21.5
		C930.798,692.49,927.668,691.85,924.888,690.53z"/>
	<path fill="#F3F3F4" stroke="#F3F3F4" stroke-miterlimit="10.43" d="M602.308,702.36c21.11-6.83,43.32-11.38,65.6-10.38
		c-5.01,0.77-9.78,3.25-12.92,7.27c-5.88,7.08-5.74,18.33,0.27,25.29c6.12,7.47,17.86,9.24,25.92,3.91c8.07-4.95,11.37-16,7.48-24.6
		c-2.18-5.58-7.24-9.35-12.68-11.44c15.23,1.7,30.26,5.97,43.58,13.67c0.59,0.36,1.16,0.79,1.71,1.29c0.66,0.78,1.5,1.32,2.52,1.63
		c8.04,4.74,14.89,11.34,21.01,18.35c-2.27,2.5-3.73,5.59-3.53,9.04l-0.03,0.32c-20.88,0.55-41.71-1.37-62.45-3.61
		c-31.64-3.45-63.13-8.17-94.58-13.05c-5.65-0.99-11.33-1.83-16.98-2.85C578.408,711.13,590.278,706.44,602.308,702.36z"/>
	<path fill="#3B2313" stroke="#3B2313" stroke-miterlimit="10.43" d="M676.678,691.31c10.84,1.05,21.48,4.28,31.48,8.6
		c3.86,1.91,8.01,3.43,11.4,6.17c-13.32-7.7-28.35-11.97-43.58-13.67c5.44,2.09,10.5,5.86,12.68,11.44
		c3.89,8.6,0.59,19.65-7.48,24.6c-8.06,5.33-19.8,3.56-25.92-3.91c-6.01-6.96-6.15-18.21-0.27-25.29c3.14-4.02,7.91-6.5,12.92-7.27
		C670.838,692.2,673.788,691.97,676.678,691.31z"/>
	<path fill="#D2A767" stroke="#D2A767" stroke-miterlimit="10.43" d="M867.868,708.02c-0.97-2.04,2.54-3.92,4.11-2.6
		C870.678,706.4,869.298,707.27,867.868,708.02z"/>
	<path fill="#D0A566" stroke="#D0A566" stroke-miterlimit="10.43" d="M721.268,707.37c1.7-0.74,2.54-0.2,2.52,1.63
		C722.768,708.69,721.928,708.15,721.268,707.37z"/>
	<path fill="#8B5E3B" stroke="#8B5E3B" stroke-miterlimit="10.43" d="M841.268,733.85c1.78-2.43,3.33-5.22,5.64-7.13l0.69,0.06
		c2.34,2.28,3.43,5.4,3.14,8.67C847.528,735.18,844.358,734.71,841.268,733.85z"/>
	<path fill="#8B5E3B" stroke="#8B5E3B" stroke-miterlimit="10.43" d="M741.268,736.39c-0.2-3.45,1.26-6.54,3.53-9.04
		c2.17,2.42,4.17,5,6.04,7.67C747.718,735.9,744.518,736.58,741.268,736.39z"/>
	<g>
		<path fill="#F1592A" stroke="#F1592A" stroke-miterlimit="10.43" d="M732.128,943.64c18.22-1.23,36.8-1.15,54.62,3.31
			c3.4,1.18,6.76-0.79,10.13-1.2c21.69-4.23,44.02-3.1,65.83-0.45c15.68,2.04,31.26,5.01,46.56,9.07
			c-13,11.04-24.8,23.36-36.07,36.14c-11.11,12.22-22.69,24.68-37.7,32.13c-10.47,5.3-22.13,7.96-33.79,8.69
			c-17.81,0.51-36.3,0.96-53.06-6.05c-17.63-6.96-31.12-20.89-43.5-34.76c-11.33-12.75-23.04-25.22-36.17-36.15
			C689.668,948.99,710.808,945.26,732.128,943.64z M691.238,956.82c8.14,14.89,21.2,26.75,36.31,34.34
			c22.2,11.19,47.59,15.16,72.27,13.58c18.86-1.48,37.72-6.13,54.33-15.38c13.69-7.56,25.43-18.78,32.94-32.55
			c-23.63,3.35-47.48,5.99-71.39,5.37c-9.01-0.47-18.37-1.11-26.57-5.25c-8.12,4.18-17.45,4.73-26.4,5.26
			C738.788,962.8,714.908,960.17,691.238,956.82z"/>
	</g>
	<path fill="#FFFFFF" stroke="#FFFFFF" stroke-miterlimit="10.43" d="M691.238,956.82c23.67,3.35,47.55,5.98,71.49,5.37
		c8.95-0.53,18.28-1.08,26.4-5.26c8.2,4.14,17.56,4.78,26.57,5.25c23.91,0.62,47.76-2.02,71.39-5.37
		c-7.51,13.77-19.25,24.99-32.94,32.55c-16.61,9.25-35.47,13.9-54.33,15.38c-24.68,1.58-50.07-2.39-72.27-13.58
		C712.438,983.57,699.378,971.71,691.238,956.82z"/>
	<path fill="#F7941E" stroke="#F7941E" stroke-miterlimit="10.43" d="M634.528,1073.96c13.94,11.62,28.06,23.14,43.51,32.74
		c6.15,3.64,11.19,8.77,16.87,13.06c16.18,12.79,33.48,24.46,52.49,32.61c14.41,5.95,30.89,10.47,46.24,5.37
		c3.98-1.42,7.84,1.37,11.82,1.65c17.05,2.41,33.92-3.5,49.2-10.51c18.17-8.56,34.88-19.93,50.61-32.35
		c7.47-6.65,16.21-11.67,23.41-18.64c4.06-3.28,7.15-7.8,11.93-10.12c-17.13,27.36-37.14,53.22-61.25,74.81
		c-15.23,13.3-32.33,24.92-51.52,31.65c-18.18,6.52-38.15,8.06-57.08,4.18c-18.82-3.81-36.31-12.58-51.87-23.65
		c-25.65-18.39-46.67-42.51-64.61-68.3C647.288,1095.9,639.888,1085.47,634.528,1073.96z"/>
	<path fill="#3A3A3C" stroke="#3A3A3C" stroke-miterlimit="10.43" d="M586.208,1137.49c14.02-11.39,28.7-22.22,45.03-30.1
		c-0.01,3.56,0.03,7.14-0.05,10.72c-14.8,43.7-24.49,89.03-30.55,134.73c-6.7,50.43-8.63,101.42-6.86,152.24
		c1.87,49.03,7.57,97.97,17.98,145.94c8.07,36.97,18.91,73.41,33.76,108.25c11.87,27.65,26.25,54.42,44.81,78.2
		c15.86,20.13,34.96,38.49,58.37,49.52c18.34,8.83,39.44,12.03,59.51,8.29c24.34-4.41,46-18.2,63.58-35.19
		c19.69-18.96,35.24-41.81,48.24-65.75c16.29-30.06,28.53-62.18,38.28-94.91c23.62-80.44,32.3-164.75,30.84-248.41
		c-1.63-72.22-10.94-144.63-31.85-213.91c-0.14-7.96-0.03-15.92-0.06-23.87c17.58,10.27,33.48,23.13,48.72,36.56
		c28.01,25.05,53.73,52.58,77.87,81.34c21.1,3.24,42.15,6.72,63.21,10.24c38.7,6.7,77.4,13.62,115.68,22.51
		c16.89,4.06,33.93,8.1,49.89,15.13c-20.85,24.88-34.59,54.85-44.41,85.58c-11.09,34.89-17.75,71.03-22.35,107.3
		c-8.88,72.32-9.83,145.37-7.57,218.12c1.97,60.46,6.39,120.82,12.51,180.99c4.18,40.42,8.94,80.79,14.82,120.99h-952.86
		c11.55-81.94,20.11-164.32,24.82-246.94c2.93-51.29,4.13-102.69,3.13-154.05c-1.16-49.17-4.38-98.37-12.13-146.97
		c-5.92-36.33-14.19-72.52-28.2-106.66c-8.7-20.81-19.45-41.13-34.5-58.09c4.13-3.11,9.14-4.57,13.96-6.2
		c11.37-3.74,22.99-6.62,34.62-9.41c41.33-9.61,83.13-17.05,124.96-24.13c18.34-3.08,36.69-6.07,55.06-8.89
		C522.578,1197.32,552.638,1165.41,586.208,1137.49z"/>
	<path fill="#F3F3F4" stroke="#F3F3F4" stroke-miterlimit="10.43" d="M631.188,1118.11c0.12,109.97,0.01,219.95,0.06,329.92
		c0.08,2.63,0.69,5.25,0.64,7.92c-1.2,14.64-1.01,29.47,1.53,43.98c4.88,29.1,17.98,56.74,37.3,79.04
		c22.91,26.65,54.67,45.58,89.07,52.87c32.96,7.1,68.13,3.78,99.09-9.65c30.69-13.21,57.09-36.11,74.5-64.62
		c18.66-30.12,26.68-66.45,23.15-101.65c1.12-8.91,0.61-17.89,0.71-26.84c0.04-97.32-0.08-194.65,0.06-291.97
		c20.91,69.28,30.22,141.69,31.85,213.91c1.46,83.66-7.22,167.97-30.84,248.41c-9.75,32.73-21.99,64.85-38.28,94.91
		c-13,23.94-28.55,46.79-48.24,65.75c-17.58,16.99-39.24,30.78-63.58,35.19c-20.07,3.74-41.17,0.54-59.51-8.29
		c-23.41-11.03-42.51-29.39-58.37-49.52c-18.56-23.78-32.94-50.55-44.81-78.2c-14.85-34.84-25.69-71.28-33.76-108.25
		c-10.41-47.97-16.11-96.91-17.98-145.94c-1.77-50.82,0.16-101.81,6.86-152.24C606.698,1207.14,616.388,1161.81,631.188,1118.11z"/>
	<path fill="#FCB040" stroke="#FCB040" stroke-miterlimit="10.43" d="M204.768,1294.15c12.65-8.65,27.48-14.73,42.94-15.13
		c6.05,0.1,12.11,0.91,18.16,0.27c15.05,16.96,25.8,37.28,34.5,58.09c14.01,34.14,22.28,70.33,28.2,106.66
		c7.75,48.6,10.97,97.8,12.13,146.97c1,51.36-0.2,102.76-3.13,154.05c-4.71,82.62-13.27,165-24.82,246.94H99.408
		c4.48-44.2,4-88.75,1.29-133.05c-2.71-42.99-7.56-85.83-14.33-128.37c-0.74-6.22-2.74-12.3-2.49-18.6
		c2.05-52.14,5.8-104.26,12.92-155.96c6.03-43.46,14.29-86.73,27.22-128.69c10.02-32.05,22.67-63.64,41.37-91.68
		C176.078,1319.78,188.928,1305.05,204.768,1294.15z"/>
	<path fill="#FCB040" stroke="#FCB040" stroke-miterlimit="10.43" d="M1312.608,1279.02c17.34-0.59,34.17,6.13,48.15,16.03
		c21.47,15.29,37.28,37.12,49.85,60c15.27,28.18,26.07,58.55,34.63,89.36c9.37,33.97,15.99,68.64,21.07,103.49
		c7.9,54.73,11.97,109.94,14.07,165.17c0.08,4.37-1.14,8.64-1.76,12.95c-6.41,39.12-11.07,78.53-14.06,118.06
		c-3.59,49.21-4.69,98.77,0.29,147.92h-199.24c-5.88-40.2-10.64-80.57-14.82-120.99c-6.12-60.17-10.54-120.53-12.51-180.99
		c-2.26-72.75-1.31-145.8,7.57-218.12c4.6-36.27,11.26-72.41,22.35-107.3C1278.018,1333.87,1291.758,1303.9,1312.608,1279.02z"/>
</g>
</svg>
